# Vectary OBJ Export units=mm
mtllib Polyhedron.mtl
o 000_Polyhedron
g Polyhedron
usemtl Picasso_e10dd1c8-2347-437d-86d4-be86165c8df6
v -26.287 50.000 -42.533
v -42.533 76.287 0.000
v 0.000 92.533 -26.287
v 26.287 50.000 -42.533
v 0.000 7.467 -26.287
v -42.533 23.713 0.000
v 42.533 76.287 0.000
v 0.000 92.533 26.287
v -26.287 50.000 42.533
v 0.000 7.467 26.287
v 42.533 23.713 0.000
v 26.287 50.000 42.533
vt 0.33810 0.50000
vt 0.50000 0.67621
vt 0.25000 0.82379
vt 0.16190 0.50000
vt 0.25000 0.17621
vt 0.50000 0.32379
vt 0.00000 0.67621
vt 0.75000 0.82379
vt 0.66190 0.50000
vt 0.75000 0.17621
vt 0.00000 0.32379
vt 0.83810 0.50000
vt 1.00000 0.67621
vt 1.00000 0.32379
vt 1.25000 0.82379
vt 1.25000 0.17621
vn -0.52573 0.00000 -0.85065
vn -0.85065 0.52573 0.00000
vn 0.00000 0.85065 -0.52573
vn -0.52573 0.00000 -0.85065
vn 0.00000 0.85065 -0.52573
vn 0.52573 0.00000 -0.85065
vn -0.52573 0.00000 -0.85065
vn 0.52573 0.00000 -0.85065
vn 0.00000 -0.85065 -0.52573
vn -0.52573 0.00000 -0.85065
vn 0.00000 -0.85065 -0.52573
vn -0.85065 -0.52573 -0.00000
vn -0.52573 0.00000 -0.85065
vn -0.85065 -0.52573 -0.00000
vn -0.85065 0.52573 0.00000
vn 0.52573 0.00000 -0.85065
vn 0.00000 0.85065 -0.52573
vn 0.85065 0.52573 0.00000
vn 0.00000 0.85065 -0.52573
vn -0.85065 0.52573 0.00000
vn 0.00000 0.85065 0.52573
vn -0.85065 0.52573 0.00000
vn -0.85065 -0.52573 -0.00000
vn -0.52573 -0.00000 0.85065
vn -0.85065 -0.52573 -0.00000
vn 0.00000 -0.85065 -0.52573
vn 0.00000 -0.85065 0.52573
vn 0.00000 -0.85065 -0.52573
vn 0.52573 0.00000 -0.85065
vn 0.85065 -0.52573 -0.00000
vn 0.52573 -0.00000 0.85065
vn 0.85065 0.52573 0.00000
vn 0.00000 0.85065 0.52573
vn 0.52573 -0.00000 0.85065
vn 0.00000 0.85065 0.52573
vn -0.52573 -0.00000 0.85065
vn 0.52573 -0.00000 0.85065
vn -0.52573 -0.00000 0.85065
vn 0.00000 -0.85065 0.52573
vn 0.52573 -0.00000 0.85065
vn 0.00000 -0.85065 0.52573
vn 0.85065 -0.52573 -0.00000
vn 0.52573 -0.00000 0.85065
vn 0.85065 -0.52573 -0.00000
vn 0.85065 0.52573 0.00000
vn 0.00000 0.85065 0.52573
vn 0.85065 0.52573 0.00000
vn 0.00000 0.85065 -0.52573
vn -0.52573 -0.00000 0.85065
vn 0.00000 0.85065 0.52573
vn -0.85065 0.52573 0.00000
vn 0.00000 -0.85065 0.52573
vn -0.52573 -0.00000 0.85065
vn -0.85065 -0.52573 -0.00000
vn 0.85065 -0.52573 -0.00000
vn 0.00000 -0.85065 0.52573
vn 0.00000 -0.85065 -0.52573
vn 0.85065 0.52573 0.00000
vn 0.85065 -0.52573 -0.00000
vn 0.52573 0.00000 -0.85065
f 1/1/1 2/2/2 3/3/3 
f 1/1/4 3/3/5 4/4/6 
f 1/1/7 4/4/8 5/5/9 
f 1/1/10 5/5/11 6/6/12 
f 1/1/13 6/6/14 2/2/15 
f 4/4/16 3/3/17 7/7/18 
f 3/3/19 2/2/20 8/8/21 
f 2/2/22 6/6/23 9/9/24 
f 6/6/25 5/5/26 10/10/27 
f 5/5/28 4/4/29 11/11/30 
f 12/12/31 7/13/32 8/8/33 
f 12/12/34 8/8/35 9/9/36 
f 12/12/37 9/9/38 10/10/39 
f 12/12/40 10/10/41 11/14/42 
f 12/12/43 11/14/44 7/13/45 
f 8/8/46 7/13/47 3/15/48 
f 9/9/49 8/8/50 2/2/51 
f 10/10/52 9/9/53 6/6/54 
f 11/14/55 10/10/56 5/16/57 
f 7/7/58 11/11/59 4/4/60 
