<?xml version="1.0" encoding="iso-8859-1"?>
<!-- Uploaded to: SVG Repo, www.svgrepo.com, Generator: SVG Repo Mixer Tools -->
<!DOCTYPE svg PUBLIC "-//W3C//DTD SVG 1.1//EN" "http://www.w3.org/Graphics/SVG/1.1/DTD/svg11.dtd">
<svg viewBox="0 0 390 390" height="24px" width="24px" version="1.1" id="Capa_1" xmlns="http://www.w3.org/2000/svg" xmlns:xlink="http://www.w3.org/1999/xlink" xml:space="preserve">
    <g>
        <path fill="#FFFFFF" d="M152.678,30h3.494c25.314,0,45.945,20.443,46.246,45.689h30.002C232.115,33.902,198.027,0,156.172,0h-3.494
        C110.82,0,76.732,33.902,76.43,75.689h30.001C106.731,50.443,127.361,30,152.678,30z"/>
        <path fill="#FFFFFF" d="M291.168,205.117V92.189c0-3.313-2.688-6-6-6H23.682c-3.315,0-6,2.687-6,6v223.869c0,16.542,13.457,30,30,30h153.074
        c16.393,26.182,45.49,43.633,78.592,43.633c51.094,0,92.662-41.568,92.662-92.662C372.01,249.939,336.701,210.94,291.168,205.117z
         M89.049,144.02c-9.511,0-17.248-7.737-17.248-17.248c0-9.512,7.737-17.249,17.248-17.249c9.51,0,17.246,7.737,17.246,17.249
        C106.295,136.282,98.559,144.02,89.049,144.02z M202.553,126.771c0-9.512,7.736-17.249,17.246-17.249
        c9.512,0,17.25,7.737,17.25,17.249c0,9.511-7.738,17.248-17.25,17.248C210.289,144.02,202.553,136.282,202.553,126.771z
         M278.014,364.691c-37.369,0-67.662-30.293-67.662-67.662c0-37.369,30.293-67.662,67.662-67.662s67.662,30.293,67.662,67.662
        C345.676,334.398,315.383,364.691,278.014,364.691z"/>
        <path fill="#FFFFFF" d="M302.848,280.625h-8.429v-8.429c0-9.061-7.345-16.404-16.404-16.404c-9.06,0-16.404,7.344-16.404,16.404v8.429h-8.429
        c-9.061,0-16.404,7.345-16.404,16.404s7.344,16.404,16.404,16.404h8.429v8.429c0,9.059,7.345,16.404,16.404,16.404
        c9.06,0,16.404-7.346,16.404-16.404v-8.429h8.429c9.059,0,16.404-7.345,16.404-16.404S311.906,280.625,302.848,280.625z"/>
    </g>
</svg>
